<?xml version="1.0"?>
<svg xmlns="http://www.w3.org/2000/svg" height="512px" viewBox="0 -8 480 480" width="512px"><path d="m256 48c0 26.507812-21.492188 48-48 48s-48-21.492188-48-48 21.492188-48 48-48 48 21.492188 48 48zm0 0" fill="#fafa11"/><path d="m58.265625 285.71875c-10.449219-36.917969-7.625-75.839844 8.359375-111.078125-21.328125 11.574219-38.265625 29.199219-48.496094 51.160156-11.234375 24.101563-13.175781 50.808594-5.65625 75.984375zm0 0" fill="#fafa11"/><path d="m178.015625 243.71875 51.320313-18c-9.96875-21.398438-26.335938-38.390625-46.078126-49.726562h288.742188v-16h-21.070312l-83.441407-70.601563c-13.257812-11.214844-30.121093-17.390625-47.488281-17.390625s-34.230469 6.175781-47.488281 17.398438l-83.441407 70.601562h-61.070312v.257812c-9.398438-.335937-18.929688.390626-28.414062 2.34375 35.367187 16.933594 62.796874 45.476563 78.429687 81.117188zm0 0" fill="#fafa11"/><path d="m72 168c13.230469 0 24-10.769531 24-24s-10.769531-24-24-24-24 10.769531-24 24 10.769531 24 24 24zm0-32c4.40625 0 8 3.59375 8 8s-3.59375 8-8 8-8-3.59375-8-8 3.59375-8 8-8zm0 0" fill="#fafa11"/><path d="m458.144531 226.535156c-2.359375 2.496094-6.039062 5.464844-10.167969 5.464844-4.128906 0-7.808593-2.96875-10.242187-5.542969-6.476563-6.839843-14.007813-10.457031-21.773437-10.457031 0 0 0 0-.007813 0-7.769531 0-15.304687 3.625-21.824219 10.511719-2.359375 2.496093-6.050781 5.472656-10.167968 5.472656-4.128907 0-7.816407-2.976563-10.175782-5.480469-6.488281-6.855468-14.023437-10.488281-21.808594-10.488281-7.777343 0-15.3125 3.625-21.808593 10.488281-2.367188 2.496094-6.046875 5.480469-10.175781 5.480469-4.128907 0-7.808594-2.976563-10.167969-5.472656l-11.625 10.992187c6.488281 6.855469 14.023437 10.488282 21.800781 10.488282s15.3125-3.625 21.808594-10.496094c2.367187-2.496094 6.046875-5.480469 10.175781-5.480469s7.816406 2.984375 10.175781 5.480469c6.488282 6.855468 14.023438 10.480468 21.800782 10.488281h.007812c7.765625 0 15.304688-3.625 21.832031-10.511719 2.351563-2.496094 6.03125-5.472656 10.160157-5.472656 4.128906 0 7.808593 2.976562 10.238281 5.535156 6.472656 6.847656 14.007812 10.464844 21.777343 10.464844 7.765626 0 15.304688-3.617188 21.785157-10.464844zm0 0" fill="#fafa11"/><path d="m349.761719 301.535156-11.617188-11c-2.359375 2.496094-6.039062 5.464844-10.167969 5.464844-4.128906 0-7.808593-2.96875-10.242187-5.535156-6.476563-6.847656-14.015625-10.464844-21.78125-10.464844-7.769531 0-15.304687 3.625-21.824219 10.503906-2.359375 2.496094-6.050781 5.480469-10.175781 5.480469-4.128906 0-7.816406-2.984375-10.175781-5.488281-12.976563-13.710938-30.632813-13.710938-43.609375-.007813l-.167969.183594c-2.367188 2.464844-5.984375 5.304687-10.015625 5.304687-4.128906-.007812-7.816406-2.984374-10.175781-5.488281l-11.625 11c6.488281 6.847657 14.015625 10.480469 21.800781 10.488281 7.777344 0 15.3125-3.625 21.800781-10.480468l.183594-.191406c2.367188-2.464844 5.976562-5.296876 10-5.296876 4.136719 0 7.824219 2.984376 10.183594 5.488282 6.488281 6.847656 14.023437 10.480468 21.800781 10.488281 7.773437 0 15.3125-3.625 21.832031-10.511719 2.367188-2.496094 6.046875-5.472656 10.167969-5.472656 4.117187 0 7.808594 2.96875 10.238281 5.535156 6.480469 6.847656 14.015625 10.464844 21.785156 10.464844 7.765626 0 15.304688-3.617188 21.785157-10.464844zm0 0" fill="#fafa11"/><path d="m319.984375 367.984375c7.777344 0 15.3125-3.625 21.800781-10.480469l.183594-.191406c2.367188-2.464844 5.976562-5.296875 10-5.296875 4.136719 0 7.824219 2.984375 10.183594 5.488281 6.488281 6.847656 14.023437 10.480469 21.800781 10.488282 7.773437 0 15.3125-3.625 21.832031-10.511719 2.367188-2.503907 6.046875-5.480469 10.167969-5.480469 4.117187 0 7.808594 2.96875 10.238281 5.535156 6.480469 6.847656 14.015625 10.464844 21.785156 10.464844 7.765626 0 15.304688-3.617188 21.785157-10.464844l-11.617188-11c-2.359375 2.496094-6.039062 5.464844-10.167969 5.464844-4.128906 0-7.808593-2.96875-10.242187-5.535156-6.476563-6.847656-14.015625-10.464844-21.78125-10.464844-7.769531 0-15.304687 3.625-21.824219 10.503906-2.359375 2.496094-6.050781 5.480469-10.175781 5.480469-4.128906 0-7.816406-2.984375-10.175781-5.488281-12.984375-13.710938-30.632813-13.710938-43.609375-.007813l-.167969.183594c-2.367188 2.464844-5.984375 5.304687-10.015625 5.304687-4.128906-.007812-7.816406-2.984374-10.175781-5.488281l-11.625 11c6.480468 6.863281 14.015625 10.488281 21.800781 10.496094zm0 0" fill="#fafa11"/><path d="m286.023438 409.527344-16.609376-41.527344h-92.980468l-36.929688-110.777344 23.398438-8.207031c-14.382813-32.0625-39.390625-57.695313-71.566406-72.695313l-6.519532-3.039062-3.039062 6.519531c-14.839844 31.839844-17.65625 67.128907-8.425782 100.625l27.175782-9.53125 32.367187 97.105469h-31.359375l-22.046875-58.816406-14.984375 5.625 23.082032 61.527344-15.144532 53c-47.035156 12.824218-72.441406 26.664062-72.441406 26.664062v8h64v-16h16v16h40v-16h16v16h40v-16h16v16h40v-16h16v16h40v-16h16v16h40v-16h16v16h40v-16h16v16h64v-8s-70.40625-38.351562-193.976562-46.472656zm-170.390626-143.925782 8.773438-3.082031 35.160156 105.480469h-9.796875zm-13.601562 118.398438h16.527344l-6 36.007812c-7.765625 1.519532-15.167969 3.121094-22.175782 4.785157zm65.96875 56h-16v-16h16zm-38.71875-23.039062 5.496094-32.960938h90.664062l4.816406 24.097656c-37.960937.519532-71.761718 3.980469-100.976562 8.863282zm94.71875 23.039062h-16v-16h16zm22.566406-31.9375-4.804687-24.0625h16.824219l9.828124 24.566406c-7.109374-.277344-14.414062-.429687-21.847656-.503906zm33.433594 31.9375h-16v-16h16zm56 0h-16v-16h16zm0 0" fill="#fafa11"/></svg>
