<svg height="480pt" viewBox="-56 0 480 480" width="480pt" xmlns="http://www.w3.org/2000/svg"><path d="m365.65625 98.34375-96-96c-1.5-1.5-3.535156-2.34375-5.65625-2.34375h-224c-22.082031.0273438-39.9726562 17.917969-40 40v400c.0273438 22.082031 17.917969 39.972656 40 40h288c22.082031-.027344 39.972656-17.917969 40-40v-336c0-2.121094-.84375-4.15625-2.34375-5.65625zm-93.65625-71.03125 68.6875 68.6875h-44.6875c-13.253906 0-24-10.746094-24-24zm56 436.6875h-288c-13.253906 0-24-10.746094-24-24v-400c0-13.253906 10.746094-24 24-24h216v56c.027344 22.082031 17.917969 39.972656 40 40h56v328c0 13.253906-10.746094 24-24 24zm0 0"/><path d="m224 176h16v16h-16zm0 0"/><path d="m256 176h48v16h-48zm0 0"/><path d="m224 208h80v16h-80zm0 0"/><path d="m64 240h112c8.835938 0 16-7.164062 16-16v-16c.105469-27.503906-19.871094-50.972656-47.039062-55.257812-2.960938-.488282-5.957032-.738282-8.960938-.742188h-32c-3 .003906-5.992188.25-8.953125.742188-27.171875 4.28125-47.152344 27.75-47.046875 55.257812v16c0 8.835938 7.164062 16 16 16zm112-32v16h-48v-6.398438l20.351562-47.59375c16.523438 5.265626 27.71875 20.648438 27.648438 37.992188zm-44.167969-40-11.832031 27.65625-11.832031-27.65625zm-67.832031 40c-.054688-17.328125 11.136719-32.691406 27.648438-37.953125l20.351562 47.59375v6.359375h-48zm0 0"/><path d="m144 200h16v16h-16zm0 0"/><path d="m160 112v-8c4.417969 0 8-3.582031 8-8v-8c-.027344-22.082031-17.917969-39.972656-40-40h-16c-22.082031.027344-39.972656 17.917969-40 40v8c0 4.417969 3.582031 8 8 8v8c0 22.089844 17.910156 40 40 40s40-17.910156 40-40zm-48-48h16c13.253906 0 24 10.746094 24 24h-30.113281l-14.3125-7.160156c-3.082031-1.523438-6.789063-.917969-9.230469 1.503906l-5.65625 5.65625h-4.6875c0-13.253906 10.746094-24 24-24zm8 72c-13.253906 0-24-10.746094-24-24v-8c2.121094 0 4.15625-.84375 5.65625-2.34375l3.917969-3.921875 10.851562 5.425781c1.109375.554688 2.332031.839844 3.574219.839844h24v8c0 13.253906-10.746094 24-24 24zm0 0"/><path d="m312 256h-256c-4.417969 0-8 3.582031-8 8v64c0 4.417969 3.582031 8 8 8h256c4.417969 0 8-3.582031 8-8v-64c0-4.417969-3.582031-8-8-8zm-248 16h112v48h-112zm240 48h-112v-48h112zm0 0"/><path d="m136 352h-80c-4.417969 0-8 3.582031-8 8v64c0 4.417969 3.582031 8 8 8h80c4.417969 0 8-3.582031 8-8v-64c0-4.417969-3.582031-8-8-8zm-8 64h-64v-48h64zm0 0"/><path d="m184 352h128v16h-128zm0 0"/><path d="m184 384h128v16h-128zm0 0"/><path d="m184 416h128v16h-128zm0 0"/></svg>